# xmcd CD database file
#
# Track frame offsets:
#	150
#	19112
#	41537
#	62312
#	78662
#	97937
#	123737
#	144212
#	163862
#	181112
#	201437
#	219287
#	243137
#	262187
#	281237
#
# Disc length: 4073 seconds
#
# Revision: 0
# Processed by: cddbd v1.5.2PL0 Copyright (c) Steve Scherf et al.
# Submitted via: CDex 1.51
#
DISCID=d20fe70f
DTITLE=Various Artist - Ladies First - אוסף אקראי מספר אחת
DYEAR=1991
DGENRE=90's
TTITLE0=אתי אנקרי - Chebba
TTITLE1=Basia - Ordinary People
TTITLE2=טל גורדון - כמו שיורד גשם
TTITLE3=Beverley Craven - Promise Me
TTITLE4=אחינועם ניני - I Will
TTITLE5=Bliss - Spirit of the Man
TTITLE6=סי היימן - זמן אחר
TTITLE7=Wilson Phillips - Hold On (Album Version)
TTITLE8=Roxette - Fading Like A Flower (Every Time You Leave)
TTITLE9=Celine Dion - Where Does My Heart Beat Now
TTITLE10=יהודית תמיר - נסעת מכאן
TTITLE11=Haris Alexiou - Mia Pista Apo Fosforo
TTITLE12=Anna Domino - Paris
TTITLE13=לא שבת - ירח בשמים
TTITLE14=Alison Moyet - Find Me
EXTD=YEAR: 1991
EXTT0=
EXTT1=
EXTT2=
EXTT3=
EXTT4=
EXTT5=
EXTT6=
EXTT7=
EXTT8=
EXTT9=
EXTT10=
EXTT11=
EXTT12=
EXTT13=
EXTT14=
PLAYORDER=
